<svg width="74" height="45" viewBox="0 0 74 45" fill="none" xmlns="http://www.w3.org/2000/svg">
<path opacity="0.07" d="M54.0353 10.287C56.3625 12.2509 59.7704 12.2374 62.082 10.2551L74 0.034687V18.28L60.0924 27.082C57.7304 28.5768 54.6608 28.3092 52.5932 26.428L43.9616 18.5749C41.4662 16.3046 37.6147 16.4421 35.2875 18.8846L20.3797 34.5314L28.3822 42.5187C29.23 43.3648 28.6361 44.8138 27.4383 44.8216L1.35727 44.9912C0.6091 44.996 0 44.3909 0 43.6427V17.5213C0 16.3237 1.44484 15.7203 2.29655 16.5623L10.3877 24.5612L36.6556 2.3815C38.9686 0.428555 42.3527 0.428089 44.6661 2.38041L54.0353 10.287Z" fill="url(#paint0_linear_634_155)"/>
<defs>
<linearGradient id="paint0_linear_634_155" x1="32.9254" y1="27.9574" x2="73.9187" y2="10.4029" gradientUnits="userSpaceOnUse">
<stop stop-color="#00A07B"/>
<stop offset="1" stop-color="#00A07B" stop-opacity="0"/>
</linearGradient>
</defs>
</svg>
