<?xml version="1.0" encoding="UTF-8"?>
<svg width="18px" height="20px" viewBox="0 0 18 20" version="1.1" xmlns="http://www.w3.org/2000/svg" xmlns:xlink="http://www.w3.org/1999/xlink">
    <title>icon_search</title>
    <g id="页面-1" stroke="none" stroke-width="1" fill="none" fill-rule="evenodd">
        <g id="切图" transform="translate(-292.000000, -239.000000)" fill="#999999">
            <g id="icon_search-2" transform="translate(292.000000, 239.000000)">
                <path d="M9.0000799,18.7802337 C4.01887787,18.7802337 0,14.5666617 0,9.39011686 C0,4.21357206 4.01887787,0 9.0000799,0 C13.9811221,0 18,4.21357206 18,9.39011686 C18,14.5666617 13.9811221,18.7802337 9.0000799,18.7802337 Z M9.0000799,17.1581498 C13.0568946,17.1581498 16.3636654,13.6893252 16.3636654,9.39011686 C16.3636654,5.08954618 13.0568946,1.62211562 9.0000799,1.62211562 C4.94310537,1.62211562 1.63633458,5.08954618 1.63633458,9.39011686 C1.63633458,13.6893252 4.94310537,17.1581498 9.0000799,17.1581498 Z M14.2494287,17.3008136 C13.9444317,16.9747113 13.9611469,16.4658359 14.2871099,16.1601685 C14.6131048,15.8544694 15.1265787,15.8660967 15.4381915,16.1861477 L17.7761502,18.6374115 C18.081275,18.9636405 18.0644319,19.4725159 17.7385968,19.7780883 C17.4126019,20.0837557 16.899128,20.0722552 16.5875152,19.7522041 L14.2494287,17.299578 L14.2494287,17.3008136 Z" id="icon_search"></path>
            </g>
        </g>
    </g>
</svg>