<svg width="24" height="24" viewBox="0 0 24 24" fill="none" xmlns="http://www.w3.org/2000/svg">
<g id="Group 64">
<path id="Subtract" fill-rule="evenodd" clip-rule="evenodd" d="M24 -0.00402832H0V23.996H24V-0.00402832ZM9 2.99597C8.44771 2.99597 8 3.44369 8 3.99597C8 4.54826 8.44771 4.99597 9 4.99597H15C15.5523 4.99597 16 4.54826 16 3.99597C16 3.44369 15.5523 2.99597 15 2.99597H9Z" fill="#E5E5E5"/>
<rect id="Rectangle 353" y="11.996" width="24" height="12" fill="white"/>
<g id="Mask group">
<mask id="mask0_4_254" style="mask-type:alpha" maskUnits="userSpaceOnUse" x="0" y="7" width="24" height="17">
<path id="Rectangle 355" d="M0 9.99597L4 7.99597H19.5L24 9.99597V23.996H0V9.99597Z" fill="white"/>
</mask>
<g mask="url(#mask0_4_254)">
<g id="Group">
<path id="Vector" d="M2.73035 14.0893C4.68333 11.027 8.11025 8.99597 12.0116 8.99597C16.2674 8.99597 19.9588 11.4128 21.788 14.9489H12.0116C9.74793 14.9489 7.83238 16.4391 7.19241 18.4921L2.73035 14.0893Z" fill="#DD5044"/>
<path id="Vector_2" d="M11.5519 30.9865L11.5642 30.9609L11.5495 30.9864L11.5355 30.9858L13.117 24.9216C15.3728 24.4176 17.0587 22.4037 17.0587 19.996C17.0587 17.2121 14.8048 14.9546 12.0222 14.9489H21.7881C22.57 16.4605 23.0117 18.1767 23.0117 19.996C23.0117 26.0711 18.0868 30.996 12.0117 30.996C11.8577 30.996 11.7044 30.9928 11.5519 30.9865Z" fill="#FFCD41"/>
<path id="Vector_3" d="M11.478 30.9832C5.65065 30.7049 1.0116 25.8922 1.0116 19.996C1.0116 18.1815 1.45092 16.4696 2.22902 14.9609L2.67006 14.1849C2.68999 14.1529 2.71007 14.1211 2.73034 14.0893L7.19241 18.492C7.04431 18.9671 6.96454 19.4722 6.96454 19.996C6.96454 22.7834 9.22417 25.043 12.0116 25.043C12.3913 25.043 12.7612 25.0011 13.117 24.9216L11.5951 30.7569L11.5303 30.9442L11.478 30.9832Z" fill="#17A05D"/>
<path id="Vector_4" opacity="0.047" d="M11.5498 30.986L11.5357 30.9854L13.1164 24.9241C14.5081 24.6165 15.684 23.7344 16.3826 22.5393L16.4155 22.5583L11.5498 30.986ZM2.74011 14.0906L2.74097 14.0893L7.20303 18.492C7.05496 18.9671 6.97516 19.4722 6.97516 19.996C6.97516 20.9234 7.22534 21.7925 7.66187 22.5393L7.62893 22.5583L2.74011 14.0906ZM21.7986 14.9489L21.7995 14.9506L15.7657 16.6107C14.8421 15.5901 13.5071 14.9489 12.0222 14.9489H21.7986Z" fill="black"/>
<path id="Vector_5" d="M6.96448 19.996C6.96448 20.6588 7.09502 21.3151 7.34866 21.9274C7.6023 22.5397 7.97406 23.0961 8.44273 23.5648C8.91139 24.0334 9.46777 24.4052 10.0801 24.6588C10.6924 24.9125 11.3487 25.043 12.0115 25.043C12.6743 25.043 13.3306 24.9125 13.943 24.6588C14.5553 24.4052 15.1117 24.0334 15.5803 23.5648C16.049 23.0961 16.4208 22.5397 16.6744 21.9274C16.928 21.3151 17.0586 20.6588 17.0586 19.996C17.0586 19.3332 16.928 18.6769 16.6744 18.0645C16.4208 17.4522 16.049 16.8958 15.5803 16.4272C15.1117 15.9585 14.5553 15.5867 13.943 15.3331C13.3306 15.0795 12.6743 14.9489 12.0115 14.9489C11.3487 14.9489 10.6924 15.0795 10.0801 15.3331C9.46777 15.5867 8.91139 15.9585 8.44273 16.4272C7.97406 16.8958 7.6023 17.4522 7.34866 18.0645C7.09502 18.6769 6.96448 19.3332 6.96448 19.996Z" fill="white"/>
<path id="Vector_6" d="M7.99988 19.996C7.99988 21.06 8.42255 22.0804 9.1749 22.8327C9.92725 23.5851 10.9477 24.0077 12.0116 24.0077C13.0756 24.0077 14.096 23.5851 14.8484 22.8327C15.6007 22.0804 16.0234 21.06 16.0234 19.996C16.0234 19.4691 15.9196 18.9475 15.718 18.4607C15.5164 17.974 15.2209 17.5318 14.8484 17.1592C14.4759 16.7867 14.0336 16.4912 13.5469 16.2896C13.0601 16.088 12.5385 15.9842 12.0116 15.9842C11.4848 15.9842 10.9631 16.088 10.4764 16.2896C9.98968 16.4912 9.54742 16.7867 9.1749 17.1592C8.80237 17.5318 8.50687 17.974 8.30526 18.4607C8.10365 18.9475 7.99988 19.4691 7.99988 19.996Z" fill="#4A8AF4"/>
</g>
</g>
</g>
</g>
</svg>
