<?xml version="1.0" encoding="UTF-8"?>
<svg width="24px" height="28px" viewBox="0 0 24 28" version="1.1" xmlns="http://www.w3.org/2000/svg" xmlns:xlink="http://www.w3.org/1999/xlink">
    <title>img_appple</title>
    <g id="页面-1" stroke="none" stroke-width="1" fill="none" fill-rule="evenodd">
        <g id="切图" transform="translate(-487.000000, -211.000000)" fill="#FFFFFF">
            <g id="img_appple" transform="translate(487.000000, 211.000000)">
                <path d="M15.4108252,5.2688588 C14.8821991,5.79110251 14.2480077,6.20193424 13.5474381,6.47582205 C13.3043181,6.54622824 13.0555999,6.59806576 12.8036827,6.63056093 C12.5077801,6.67698259 12.1558958,6.72340426 11.7720221,6.76208897 C11.7496294,5.23404255 12.2166758,3.73694391 13.1075828,2.47582205 C14.1760313,1.16054159 15.7131257,0.277756286 17.4181649,0 L17.506136,0.394584139 L17.506136,0.704061896 C17.4821439,1.48704062 17.3141991,2.25996132 17.0102991,2.98646035 C16.6432198,3.84448743 16.098599,4.6212766 15.4108252,5.2688588" id="路径"></path>
                <path d="M21.2648996,18.4216634 C21.9086879,19.4003868 22.8707714,20.1439072 24,20.5338491 C23.4825702,22.0077369 22.7676054,23.4096712 21.8726997,24.7040619 C20.3771916,26.8858801 18.9056756,27.9690522 17.4501544,27.9690522 C16.6272251,27.9087041 15.818691,27.729207 15.0509436,27.4352031 C14.225615,27.1125725 13.3491033,26.931528 12.4597958,26.901354 C11.6120747,26.9230174 10.7787488,27.1156673 10.0126008,27.4661509 C9.28404042,27.7764023 8.5042969,27.9574468 7.70935837,28 C5.96593182,28 4.2488966,26.5632495 2.55905243,23.6905222 C0.958778794,21.1698259 0.0782684142,18.2839458 0.00789156276,15.3268859 C-0.0816789754,13.1148936 0.593299009,10.9361702 1.92726024,9.13733075 C3.05089065,7.59922631 4.87509063,6.68239845 6.82165036,6.67698259 C7.29989305,6.68394584 7.77733601,6.73578337 8.24518213,6.83172147 C8.80419825,6.95009671 9.34322096,7.1450677 9.84465602,7.41199226 C10.3196998,7.67350097 10.8171362,7.89323017 11.3321667,8.0696325 C11.6224713,8.17485493 11.9263713,8.23752418 12.2358695,8.25531915 C12.6269409,8.23288201 13.0148133,8.17640232 13.3954881,8.08510638 C13.9593026,7.96208897 14.4991251,7.75319149 14.994962,7.46615087 C15.4644076,7.20851064 15.9506476,6.98104449 16.4504832,6.78529981 C16.8519512,6.63752418 17.2766115,6.56170213 17.7060702,6.56092843 C19.0128404,6.54468085 20.2924195,6.92069632 21.3688654,7.63636364 C22.0478421,8.09284333 22.6492443,8.64912959 23.1522788,9.28433269 C22.4293166,9.87079304 21.7751318,10.5323017 21.2009207,11.2572534 C20.4635632,12.2630561 20.0692929,13.4669246 20.0732916,14.7001934 C20.0564971,16.0309478 20.4731601,17.3330754 21.2648996,18.4216634" id="路径"></path>
            </g>
        </g>
    </g>
</svg>