<svg width="75" height="40" viewBox="0 0 75 40" fill="none" xmlns="http://www.w3.org/2000/svg">
<path fill-rule="evenodd" clip-rule="evenodd" d="M28.5588 33.164C25.0319 34.0666 15.3969 38.9693 8.90207 34.8057C0.665316 29.5658 0.643661 14.2262 10.9342 4.78951C13.2679 2.56521 16.3305 1.28792 19.5369 1.20223C22.1701 0.987368 24.5676 2.73847 25.1931 5.33338C25.6846 7.94112 24.927 10.6302 23.1498 12.5846C22.4034 13.3649 21.5483 14.0314 20.6122 14.563C20.2738 14.7738 19.9131 14.9452 19.5369 15.0741C18.139 15.6067 16.7948 15.5523 16.311 13.9869C15.8665 11.9184 16.9873 9.83265 18.9454 9.08392C19.5907 8.83403 21.8595 8.06215 20.9884 7.86637C18.7196 7.32281 15.1067 9.25781 14.2464 12.2149C13.3861 15.172 15.3217 16.944 18.1606 16.5634C19.5846 16.3629 20.955 15.8788 22.193 15.1394C26.1335 13.4134 30.2738 12.1967 34.516 11.519C35.1613 11.4105 35.5913 10.1929 34.8278 10.3015C31.8141 10.7837 28.8437 11.5109 25.9457 12.4757C25.7979 12.5214 25.6398 12.446 25.5801 12.3018C25.5538 12.2205 25.5538 12.1329 25.5801 12.0519C25.9389 11.5662 26.2489 11.0452 26.505 10.4972C27.7632 7.92079 27.989 4.55056 26.0534 2.25652C23.8165 -0.406885 19.7519 -0.31994 16.7302 0.527933C12.7133 1.75674 9.1013 4.06361 6.27817 7.20333C0.364009 13.7696 -2.86189 25.815 3.40709 33.3598C6.0675 36.3894 9.85333 38.1653 13.8591 38.2628C19.1496 38.6544 25.8167 35.0884 27.7202 34.1533C28.9028 33.5556 29.8491 32.8488 28.5588 33.164Z" fill="#F03D30"/>
<path fill-rule="evenodd" clip-rule="evenodd" d="M49.764 15.3023C50.1408 14.7344 50.6654 14.2828 51.2798 13.9978C52.2802 13.7367 52.1404 14.8457 51.9467 15.5522C51.2535 17.4206 50.0022 19.0241 48.3657 20.14C48.2478 20.2404 48.0712 20.2251 47.9719 20.1053C47.9147 20.0368 47.8933 19.9445 47.9144 19.8573C47.9144 19.6618 47.9144 19.4551 48.0004 19.314C48.2819 17.8594 48.8845 16.4883 49.764 15.3023ZM37.2687 26.0538C37.2146 26.1064 37.1292 26.1064 37.075 26.0538C37.0627 26.0151 37.0627 25.9735 37.075 25.9347C37.2903 24.608 37.5159 23.271 37.7417 21.9771C37.9675 20.6839 38.1612 19.3137 38.4192 18.0092C38.4891 17.5332 38.6499 17.0753 38.8922 16.6612C39.6559 15.4653 40.8816 13.7695 42.1184 14.1389C42.8172 14.3672 43.0108 15.3023 43.0968 15.9219C43.2401 18.4108 42.6966 20.8912 41.5269 23.0861C41.4409 23.2819 41.3332 23.4558 41.2476 23.6516C41.1337 23.837 40.9793 23.9934 40.7959 24.1082C40.1506 24.445 39.5161 24.7822 38.8922 25.195C38.34 25.4412 37.8141 25.7436 37.3225 26.0976L37.2687 26.0538ZM33.0748 34.0447C33.021 34.3274 31.9244 38.3169 31.4727 38.3932C31.021 38.4695 31.1931 35.4471 32.2362 34.1751C32.4456 33.9102 32.668 33.6559 32.9028 33.4142C32.9805 33.3594 33.0835 33.3594 33.1611 33.4142V33.5771C33.1172 33.7294 33.0881 33.8861 33.0748 34.0447ZM21.1713 22.2601C21.8757 22.0997 22.569 21.8927 23.2465 21.6403C23.3798 21.5611 23.5512 21.6065 23.6291 21.741C23.6307 21.7435 23.6322 21.7463 23.6338 21.7491C23.661 21.8226 23.661 21.9036 23.6338 21.9771C22.225 26.1955 21.4832 31.4354 26.6552 30.0546C27.6754 29.7668 28.61 29.2292 29.3759 28.4896C29.4789 28.3813 29.6491 28.3779 29.7561 28.482C29.7583 28.4846 29.7608 28.4871 29.7629 28.4896C30.1329 29.0406 30.7958 29.3112 31.4405 29.1742C32.6448 29.0003 33.8708 27.2173 34.6018 25.6954C34.6429 25.6297 34.7237 25.6025 34.7954 25.6301C34.8514 25.6501 34.8808 25.7123 34.861 25.7689L34.8601 25.7714C34.5158 27.4781 34.0428 29.7396 33.7093 31.2071C33.6304 31.5367 33.4037 31.8104 33.0965 31.9464C30.6554 33.0335 28.2146 35.4036 29.0316 38.3169C29.2469 39.4431 30.3241 40.1793 31.4377 39.962C31.4603 39.9576 31.4826 39.9529 31.5052 39.9476C32.9567 39.6107 33.6555 38.2518 34.2256 36.9473C34.7954 35.6428 35.2041 34.1426 35.5914 32.7292C35.669 32.4377 35.8942 32.2098 36.1826 32.1313C37.161 31.8811 38.1182 31.6746 38.9568 31.4788C44.1833 30.2344 49.5471 29.679 54.9143 29.8266C59.549 29.7894 64.1169 30.9375 68.1947 33.164C70.1517 34.2511 71.5497 33.2509 70.4317 32.0768C67.9259 29.4244 58.2482 27.7827 47.4089 28.8589C43.7047 29.2042 40.0402 29.8957 36.4622 30.9247C36.3171 30.9594 36.1708 30.8737 36.1287 30.7289V30.5875C36.344 29.6524 36.5482 28.685 36.7094 27.7608C36.7468 27.6051 36.8975 27.5053 37.0537 27.5325C37.8725 27.6895 38.7183 27.6104 39.4948 27.3042C40.412 26.913 41.2256 26.3097 41.8709 25.5434C42.1326 25.2272 42.3767 24.897 42.6025 24.5539C42.6965 24.4144 42.8218 24.299 42.9678 24.2167L44.14 23.6406L45.2153 23.0752C45.3495 22.9989 45.5203 23.0467 45.5961 23.1831C45.5983 23.1868 45.6004 23.1909 45.6023 23.195V23.4993C46.4412 27.4346 50.9791 26.6412 52.9682 23.8689C54.5951 21.2825 55.7258 18.4095 56.3018 15.3999C56.3838 15.099 56.6919 14.9223 56.9895 15.0055C56.9932 15.0065 56.9969 15.0077 57.0009 15.0086H57.0869C57.6054 15.2273 58.152 15.3702 58.7104 15.4327C59.0123 15.4546 59.24 15.7199 59.2183 16.0254C59.218 16.0342 59.2171 16.0432 59.2159 16.0523C59.2239 16.1102 59.2239 16.1687 59.2159 16.2265C58.2578 18.256 57.6502 20.4365 57.4201 22.673C57.2051 23.5468 57.357 24.4713 57.8392 25.2279C58.5709 25.9347 59.8825 25.5106 60.646 25.1409C61.7213 24.5973 62.6571 22.9667 63.4094 21.3469C63.4759 21.2224 63.6259 21.1705 63.7537 21.2271C63.8403 21.285 63.8929 21.3832 63.8935 21.4883V22.0534C63.8289 23.5537 63.7429 25.9888 65.5173 26.5542C68.3667 27.4565 70.1625 24.0103 70.6897 22.7928C71.2165 21.5749 70.6897 22.3033 69.614 23.6406C69.1086 24.293 67.7109 25.5972 66.9261 25.4236C66.4744 25.3364 66.2808 24.5213 66.1945 24.1736C65.8771 22.1594 65.9538 20.1021 66.4206 18.118C66.7977 15.7371 67.3004 13.3783 67.9259 11.0517C68.0401 10.6101 68.4868 10.3458 68.9236 10.4612C68.9499 10.4684 68.9759 10.4765 69.0012 10.4862C70.165 10.8781 71.2743 11.4189 72.3023 12.0954C74.7647 13.7151 75.7757 11.7582 74.0443 10.8234C72.5838 10.0515 71.0439 9.4429 69.4529 9.00786C69.0037 8.89308 68.7315 8.43208 68.845 7.97796C68.8496 7.95857 68.8552 7.93949 68.8614 7.92042C69.1949 6.93118 69.5284 5.94194 69.9367 4.9527C70.1517 4.35472 70.4097 3.75674 70.6572 3.1697C71.1088 2.08257 69.0334 2.08257 68.5066 3.45243C67.9798 4.82228 67.4313 6.33319 66.8506 7.80094C66.716 8.18876 66.3281 8.42583 65.9257 8.3664C64.1432 8.11088 62.3486 7.95107 60.5492 7.88789C54.3482 7.79657 48.1516 8.26225 42.0324 9.27964C41.4517 9.35564 41.2476 10.5516 42.0324 10.4318C47.7207 9.50701 53.4765 9.07385 59.2372 9.13828C61.2368 9.1683 63.2315 9.34657 65.2055 9.67089C65.6528 9.75878 65.9578 10.1807 65.9043 10.6382V10.7799L65.1733 12.769C64.0225 16.1393 61.5815 24.5758 59.6245 24.4888C58.7537 24.4888 59.85 18.7376 62.1946 14.4979C62.6462 13.6716 61.1193 13.8674 60.7753 14.0085C59.506 14.639 57.5491 14.2152 58.4199 12.4212C58.8715 11.4971 56.6244 11.7147 56.3983 12.4212C55.0545 16.2156 54.807 19.9226 52.4519 23.0752C51.6457 24.1626 50.3013 25.5106 48.925 24.6518C48.4273 24.3446 48.074 23.8464 47.9465 23.271C47.8352 22.8816 47.7702 22.4803 47.7529 22.0753C47.6827 21.8301 47.8021 21.5705 48.0325 21.4661C49.1388 20.823 50.1958 20.0962 51.1941 19.2921C52.4844 18.205 55.8176 14.5304 53.7103 12.9432C52.7102 12.182 51.0218 12.7474 50.0433 13.2256C48.916 13.8252 47.9744 14.7281 47.3229 15.8349C46.2946 17.5685 45.6728 19.5173 45.5055 21.5314C45.486 21.73 45.3743 21.9077 45.2045 22.0099L44.3012 22.4337C44.1486 22.4838 43.985 22.3993 43.9355 22.2451C43.9169 22.1863 43.9169 22.1228 43.9355 22.0644C44.3575 21.047 44.6956 19.9961 44.9465 18.9224C45.2799 17.2808 45.8173 14.1389 44.0001 13.1496C42.8218 12.7018 41.5114 12.7728 40.3869 13.3454C40.1982 13.4199 40.0182 13.5146 39.8493 13.6278C39.7088 13.716 39.5248 13.6779 39.4301 13.5412C39.3945 13.4615 39.3945 13.3704 39.4301 13.291C39.7423 12.2392 39.9866 11.1677 40.1614 10.084C40.2796 9.37722 40.3334 8.30104 39.6559 7.90978C38.9231 7.57858 38.069 7.68773 37.4407 8.19251C36.86 8.70324 37.0537 9.58395 36.9999 10.2905C36.8279 12.2692 36.4944 14.2261 36.1612 16.1502C35.842 18.6507 35.3167 21.1198 34.5913 23.5318C34.2256 24.532 32.849 27.8803 31.9568 27.8803C31.6234 27.8803 31.5695 26.5433 31.5374 25.8043C31.5296 25.5606 31.5773 25.3192 31.6772 25.0974C32.5728 22.4956 32.999 19.7525 32.9353 16.9981C32.9353 15.7589 31.0857 16.1286 30.7844 17.2048C29.8975 19.8829 29.3694 22.6689 29.2144 25.489C29.2163 25.7617 29.1612 26.0323 29.0533 26.2825C28.6171 27.317 27.8629 28.1821 26.9027 28.7504C24.6661 29.8372 24.7521 26.4019 24.9132 25.0974C25.3448 22.515 26.2261 20.0305 27.5155 17.759C28.021 16.8242 25.8704 17.1613 25.5047 17.7049C24.7196 18.8884 23.6975 19.892 22.5046 20.651C22.032 20.9256 21.5085 21.0998 20.9669 21.1621C20.6891 21.244 20.3933 21.1108 20.268 20.8468C20.1279 20.4887 19.907 20.1681 19.6227 19.9117C18.9279 19.5185 18.0809 19.5185 17.3861 19.9117C17.0403 20.0862 16.8055 20.4258 16.7625 20.8143C16.7684 21.5324 17.2704 22.1488 17.9668 22.2927C18.2495 22.3831 18.4627 22.6195 18.5261 22.9125C18.6121 23.3147 18.6981 23.7385 18.7519 24.1298C19.0996 25.9597 18.8973 27.8528 18.1713 29.5657C17.8573 30.3429 17.238 30.9534 16.4615 31.2509C15.1709 31.6202 14.2246 30.3157 13.8267 29.2395C12.8483 26.6412 13.5471 22.5863 15.8162 20.803C16.3 20.4337 16.7733 20.0749 17.2785 19.7159C17.784 19.3572 16.6873 19.0963 15.9343 19.4006C11.8481 20.9556 9.85871 26.902 12.1278 30.6744C13.8054 33.5011 17.87 32.7073 19.6549 30.392C21.2252 28.3807 21.2787 25.3802 20.8057 22.9125C20.712 22.6592 20.8394 22.3774 21.0897 22.283C21.1163 22.273 21.1435 22.2651 21.1713 22.2601Z" fill="#F03D30"/>
</svg>
